<?xml version="1.0" encoding="UTF-8"?>
<svg height="900" version="1.1" width="1440" xmlns="http://www.w3.org/2000/svg" id="svgSk10xo2kct6" viewBox="0 0 1440 900" preserveAspectRatio="xMidYMid meet">
  <desc>Created with Snap</desc>
  <defs></defs>
  <g token="svgSk10xo2kct6" class="movieclip">
    <g token="2" transform="matrix(0.992,-0.123,0.123,0.992,345.222,161.922)" style="opacity: 1; visibility: visible;" class="movieclip">
      <g token="1" transform="matrix(1,0,0,1,0,0)" class="shape">
        <path fill="rgba(0,0,0,0)" d="M 353.35 2.05q-16.2 -4.25 -36.35 0.25q-20.6 4.4 -32.85 15.2l-203 175.3q-12.7 10.8 -22.85 30.4q-10.65 19.6 -12.85 36l-44.95 346.25q-2.2 16.4 5.3 35.85q7 19.85 18.9 31.25l446.2 419q11.9 11.3 31.25 14.35q18.85 3 34.2 -3.95l655.85 -305.3q14.85 -7.05 22.65 -23.35q7.75 -16.3 3.9 -32.35l-119 -485.5q-3.8 -16.1 -17.95 -30.65q-14.05 -15.05 -29.65 -19.75l-698.8 -203" stroke="rgba(105,180,202,0.376)" style="stroke-width: 2;">
        </path>
      </g>
    </g>
    <g token="1" transform="matrix(0.994,0.101,-0.101,0.994,103.785,168.741)" style="opacity: 1; visibility: visible;" class="movieclip">
      <g token="1" transform="matrix(1,0,0,1,0,0)" class="shape">
        <path fill="rgba(0,0,0,0)" d="M 512.85 1355.1q9 18.9 21.95 19.85q13.85 0.7 23.8 -18.1l690.9 -1317.5q9.95 -18.75 1.75 -30.2q-7.3 -11.8 -29.3 -8.45l-1188.45 159.85q-20.6 3.35 -29.8 18.9q-7.45 16.35 0.25 36.7l508.9 1138.95" stroke="rgba(255,255,255,0.247)" style="stroke-width: 2;">
        </path>
      </g>
    </g>
  </g>
</svg>